<?xml version="1.0" encoding="UTF-8" standalone="no"?>
<svg
   xmlns:dc="http://purl.org/dc/elements/1.1/"
   xmlns:cc="http://creativecommons.org/ns#"
   xmlns:rdf="http://www.w3.org/1999/02/22-rdf-syntax-ns#"
   xmlns:svg="http://www.w3.org/2000/svg"
   xmlns="http://www.w3.org/2000/svg"
   xmlns:sodipodi="http://sodipodi.sourceforge.net/DTD/sodipodi-0.dtd"
   xmlns:inkscape="http://www.inkscape.org/namespaces/inkscape"
   width="1122.5197"
   height="793.70081"
   viewBox="0 0 296.99998 210.00001"
   version="1.1"
   id="svg5300"
   inkscape:version="1.0.1 (3bc2e813f5, 2020-09-07)"
   sodipodi:docname="Happy.svg">
  <defs
     id="defs5294">
    <rect
       x="16.630952"
       y="61.232143"
       width="288.01786"
       height="50.64881"
       id="rect5865" />
  </defs>
  <sodipodi:namedview
     id="base"
     pagecolor="#ffffff"
     bordercolor="#666666"
     borderopacity="1.0"
     inkscape:pageopacity="0.0"
     inkscape:pageshadow="2"
     inkscape:zoom="0.7"
     inkscape:cx="396.13359"
     inkscape:cy="171.53138"
     inkscape:document-units="mm"
     inkscape:current-layer="layer1"
     inkscape:document-rotation="0"
     showgrid="false"
     units="px"
     inkscape:snap-smooth-nodes="true"
     inkscape:object-paths="true"
     inkscape:window-width="1600"
     inkscape:window-height="837"
     inkscape:window-x="-8"
     inkscape:window-y="-8"
     inkscape:window-maximized="1" />
  <metadata
     id="metadata5297">
    <rdf:RDF>
      <cc:Work
         rdf:about="">
        <dc:format>image/svg+xml</dc:format>
        <dc:type
           rdf:resource="http://purl.org/dc/dcmitype/StillImage" />
        <dc:title></dc:title>
      </cc:Work>
    </rdf:RDF>
  </metadata>
  <g
     inkscape:label="Слой 1"
     inkscape:groupmode="layer"
     id="layer1">
    <path
       style="fill:none;stroke:#e41d1d;stroke-width:0.793751;stroke-linecap:butt;stroke-linejoin:miter;stroke-miterlimit:4;stroke-dasharray:none;stroke-opacity:1"
       d="M 23.298138,9.2294944 C 27.492913,5.5774224 34.030646,0.44211911 35.54948,0.52003294 36.290177,1.1978017 24.788797,16.568031 19.408455,24.592028 c -2.120922,2.987015 -4.452902,6.022199 -6.638086,8.588497 -2.27732,2.674891 -4.5420401,5.350167 -7.0573317,7.560297 C 4.775381,41.56472 3.294588,41.82843 2.507458,41.921093 1.1147656,42.085044 0.40235268,40.994841 0.40256902,39.954551 0.49794189,37.905727 1.6332679,35.664507 3.3605938,33.150284 c 2.1873265,-2.741901 4.2856915,-5.259172 7.2203722,-6.683303 2.934679,-1.424131 5.773829,-1.623855 8.827489,-1.874953 l 15.535446,-0.665315 8.291782,-0.24193"
       id="path5918"
       sodipodi:nodetypes="ccccsscczccc" />
    <path
       style="fill:none;stroke:#ff0000;stroke-width:0.793751;stroke-linecap:butt;stroke-linejoin:miter;stroke-miterlimit:4;stroke-dasharray:none;stroke-opacity:1"
       d="M 50.375933,0.30835273 C 46.369665,5.7698166 42.003999,11.423215 38.357128,16.692745 c -3.646871,5.269529 -7.477973,11.316944 -9.851935,15.217641 -2.373964,3.900698 -2.919205,5.443416 -4.378808,8.165124"
       id="path5920"
       sodipodi:nodetypes="czzc" />
    <path
       style="opacity:0.995;fill:none;stroke:#ff0000;stroke-width:0.793751;stroke-linecap:butt;stroke-linejoin:miter;stroke-miterlimit:4;stroke-dasharray:none;stroke-opacity:1"
       d="m 33.732741,41.648061 c 1.504471,-0.844305 3.076253,-1.468092 4.513411,-2.532915 1.437159,-1.064822 2.966938,-1.897856 4.057869,-3.817739 1.090932,-1.919883 3.678674,-5.420879 5.589965,-7.136919 1.911293,-1.716038 4.209152,-2.831154 5.65984,-2.963636 1.450689,-0.132473 2.076167,1.251614 1.95649,2.268088 -0.119674,1.016474 -5.473507,8.437295 -5.473507,8.437295 0,0 -1.834092,2.297023 -2.888148,3.175322 -1.054058,0.878298 -2.297694,2.306158 -3.377272,2.056399 -1.079578,-0.249759 -1.951994,-2.071048 -2.00307,-2.63098 -0.05107,-0.559934 -0.366715,-0.88506 0.535702,-3.205569"
       id="path5922"
       sodipodi:nodetypes="czzzzzczzzc" />
    <path
       style="fill:none;stroke:#ff0000;stroke-width:0.793751;stroke-linecap:butt;stroke-linejoin:miter;stroke-miterlimit:4;stroke-dasharray:none;stroke-opacity:1"
       d="m 57.366985,26.169753 -1.273715,1.424791 c -0.209625,0.186488 -5.190278,7.09306 -6.056461,8.307691 -0.866185,1.21463 -1.317637,2.753386 -1.257743,4.052316 0.05989,1.29893 0.566058,1.558761 1.560534,1.78423 0.994477,0.225469 4.048638,-1.28356 6.102379,-2.782189 2.053739,-1.498628 5.052238,-5.078953 6.062685,-6.094745 1.010448,-1.015789 4.930915,-5.396907 4.930915,-5.396907 l 3.749933,-5.020037 -3.749933,5.020037 -5.544241,7.863924 -8.287967,12.294556 -3.582683,5.431627 9.099818,-13.796039 c 0,0 3.335209,-4.730653 5.825141,-8.26236 2.489932,-3.531708 6.680532,-5.046975 7.46184,-5.178735 1.464009,-0.246888 3.466056,-0.108693 3.599372,1.919198 0.133323,2.027888 -1.544037,5.25053 -2.841567,7.439331 -1.29753,2.188802 -4.144746,5.042105 -5.100843,5.382932 -0.956096,0.340825 -1.776144,0.541754 -2.534118,0.119242 -0.757975,-0.422513 -1.913611,-2.148066 -2.054313,-3.445769 -0.140702,-1.297702 0.956732,-2.575283 1.490658,-1.995923 0.533928,0.579361 0.729249,0.901849 1.001535,1.542302 0.922996,1.534952 2.188317,5.013355 3.330688,5.451687 1.142371,0.438333 2.851385,-0.456622 3.948012,-1.450962 l 6.579751,-5.966402 c 1.096627,-0.9944 6.82442,-7.348609 6.82442,-7.348609 l 3.749936,-5.020037 c 0,0 -2.91438,3.834883 -3.749936,5.020037 -0.83556,1.185153 -13.159711,18.658819 -13.159711,18.658819 l -6.265496,8.761704 c 0,0 4.319311,-6.00232 6.265496,-8.761704 1.946184,-2.759383 9.072373,-12.862204 10.300638,-14.603524 1.228265,-1.741319 3.584511,-3.712573 5.186815,-4.766493 1.602305,-1.053922 3.235564,-2.021647 4.4268,-1.556891 1.191236,0.464757 2.016428,0.595723 1.816738,2.54026 -0.199688,1.944539 -1.486947,5.252431 -2.841565,7.439331 -1.354616,2.1869 -3.879819,4.77087 -5.100846,5.382931 -1.221027,0.61206 -1.694666,0.924073 -2.422318,0.907241 -0.727654,-0.01686 -1.272265,-0.212138 -1.676403,-1.002047 -0.404139,-0.789909 -0.593017,-2.384055 -0.489709,-3.23172 0.103301,-0.847664 0.541407,-1.183754 1.038874,-1.274302 0.497468,-0.09055 1.146682,0.27838 1.453319,0.820681 0.306637,0.542302 0.46843,1.392587 0.60558,2.237848 0.13715,0.845262 1.091751,2.718109 2.725111,2.751951 1.633359,0.03385 3.279651,-0.320615 6.032505,-2.570497 2.752854,-2.24988 8.08612,-8.241948 10.24827,-10.735622 2.16214,-2.493676 4.01808,-6.368737 2.67852,-4.173283 -1.33956,2.195453 -4.30454,6.42235 -5.52009,8.830427 -1.21554,2.408077 -1.65657,3.941437 -1.70028,5.473653 -0.0437,1.532217 0.34722,2.675487 1.46737,2.691468 1.12014,0.01598 2.22685,-1.250034 3.66314,-2.618272 1.4363,-1.368238 4.09012,-4.622374 4.90814,-5.546849 0.81802,-0.924474 6.19554,-9.707422 6.19554,-9.707422 0,0 -8.90156,14.257285 -11.83209,19.082181 -2.93053,4.824896 -4.658029,7.881823 -5.824068,9.790093 -1.166041,1.908269 -5.512258,6.522939 -5.914861,6.993768 -0.120042,0.140378 -1.132817,0.676258 -0.558996,-1.028208 0.573819,-1.704466 1.689184,-5.888649 3.79652,-8.58849 2.107335,-2.699841 6.165195,-5.722251 8.501405,-7.167163 2.33622,-1.444913 3.52478,-0.907232 5.28718,-1.360848"
       id="path5924"
       sodipodi:nodetypes="czzzzzzccccccczszzzzzzczzzccscczzzzzzzzzzzzzzzzzzzzzzczzszzzc" />
    <path
       style="fill:none;stroke:#ff0000;stroke-width:0.793751;stroke-linecap:butt;stroke-linejoin:miter;stroke-miterlimit:4;stroke-dasharray:none;stroke-opacity:1"
       d="m 132.44223,21.779604 c 0,0 3.90946,-6.291513 5.17071,-7.802227 1.26125,-1.510714 6.00533,-7.086518 7.4067,-7.9231915 1.40137,-0.8366728 6.42302,-4.5730275 8.40824,-5.0200367 1.98522,-0.44700919 2.23538,0.4486096 1.9332,2.6914649 -0.30218,2.2428554 -2.05007,6.1326303 -3.49373,8.8909103 -1.44365,2.75828 -1.55134,2.780264 -5.10085,7.530049 -3.54952,4.749786 -16.1876,20.957147 -16.1876,20.957147 0,0 11.38886,-15.360651 16.1876,-20.957147 4.79875,-5.596496 8.64134,-9.332875 12.54843,-12.5559992 3.90709,-3.2231235 8.25,-5.9900674 10.7664,-6.67739689 2.51638,-0.68732945 3.44887,-0.0719308 2.60863,3.02411889 -0.84022,3.0960501 -4.069,8.2849202 -6.77782,12.3384042 -2.7088,4.053484 -6.51602,7.981348 -9.40977,11.884788 -2.89377,3.903442 -6.61868,9.601577 -7.94241,11.521891 -1.32373,1.920315 0.022,1.079754 0.51241,0.937477 0.49045,-0.142274 1.21116,0.322577 1.81674,0.483864"
       id="path5926"
       sodipodi:nodetypes="czzzzzzzzzzzzzzzc" />
    <path
       style="fill:none;stroke:#ff0000;stroke-width:0.793751;stroke-linecap:butt;stroke-linejoin:miter;stroke-miterlimit:4;stroke-dasharray:none;stroke-opacity:1"
       d="m 156.1297,41.648061 c 0.32609,-1.058443 10.49672,-4.768029 11.48272,-5.382933 0.98601,-0.614906 4.23958,-2.063341 5.91605,-3.689427 1.67646,-1.626084 3.48392,-4.137842 3.93626,-5.86679 0.45236,-1.728949 -0.34774,-2.419952 -1.86331,-2.056401 -1.51558,0.363551 -4.28228,2.099075 -6.07909,3.961596 -1.79681,1.86252 -3.80612,4.925775 -4.42539,7.046195 -0.61929,2.120421 -0.5675,1.405278 -0.44254,2.81243 0.12494,1.407152 0.98999,3.179503 3.02789,3.417258 2.0379,0.237754 6.0569,-1.915006 6.35526,-2.153755 0.29837,-0.238747 3.5514,-3.22918 4.66162,-4.408586 1.11023,-1.179407 4.92599,-5.271868 6.66138,-7.076437 1.7354,-1.804569 3.74995,-3.749908 3.74995,-3.749908 0,0 -2.64022,2.268345 -3.74995,3.749908 -1.10972,1.481565 -2.07049,3.230918 -2.84157,5.050279 -0.77107,1.819363 -1.73337,4.206908 -1.74686,5.776067 -0.0135,1.56916 0.56233,2.467194 1.67699,2.358809 1.11466,-0.108392 2.49295,-1.666619 3.61019,-2.872907 1.11724,-1.206288 1.69504,-2.15503 3.0279,-4.294252 1.33285,-2.139221 4.9611,-8.528015 4.9611,-8.528015 0,0 -3.94198,6.305643 -4.9611,8.528015 -1.01912,2.222373 -1.24182,3.229529 -1.07141,4.626901 0.17041,1.397372 0.77873,2.670038 1.95648,2.630987 1.17776,-0.03905 2.00203,-0.732899 3.65686,-2.81711 1.65481,-2.08421 4.8709,-7.177715 6.15165,-9.536525 1.28074,-2.358811 1.37843,-3.526075 1.54366,-4.505372 0.16522,-0.979296 0.18188,-1.333542 -0.63806,-0.862332 -0.81993,0.471211 -2.72239,1.807511 -3.70336,3.326531 -0.98097,1.519022 -1.46489,2.418289 -1.72422,3.69029 -0.25934,1.272 0.0507,2.549297 0.25686,3.507113 0.20614,0.957815 1.98427,0.629383 2.97639,0.944074"
       id="path5928"
       sodipodi:nodetypes="czzzzzzzzzzzzzzzzzzzzzzzzzzzzzc" />
    <path
       style="fill:none;stroke:#ff0000;stroke-width:0.793751;stroke-linecap:butt;stroke-linejoin:miter;stroke-miterlimit:4;stroke-dasharray:none;stroke-opacity:1"
       d="m 227.51821,18.785719 c -2.27478,1.52214 -5.16084,4.110181 -6.8244,4.56642 -1.66355,0.45624 -2.55836,0.05217 -1.88662,-2.177365 0.67174,-2.229547 2.8537,-6.037362 5.19401,-8.800187 2.3403,-2.7628251 5.57847,-5.5721649 8.66446,-7.5602968 3.08598,-1.9881323 7.55643,-3.9054421 9.68927,-4.2640078 2.13283,-0.3585657 2.77,-0.19113083 2.00306,2.2983299 -0.76695,2.4894608 -3.03322,6.2003091 -5.82287,10.1005587 -2.78967,3.90025 -8.05416,9.032014 -10.85386,13.215398 -2.7997,4.183384 -5.0205,9.093137 -5.82288,11.703342 -0.80238,2.610204 -0.90988,3.321663 1.58382,2.08664 2.4937,-1.235022 8.10003,-5.271613 11.97184,-8.800186 3.87182,-3.528571 7.62499,-8.060747 11.15664,-12.277923 3.53166,-4.217175 7.89077,-10.3359638 10.01536,-13.0037107 2.12459,-2.6677469 2.27092,-2.4948975 2.72512,-2.9938771 0.45418,-0.4989794 -12.73422,17.7403418 -14.30099,20.0801488 -1.56679,2.339805 -21.94063,32.237106 -22.17354,32.751206 -0.23292,0.5141 -1.2227,2.287489 -1.3975,3.084602 -0.17478,0.797112 -0.15059,1.290445 0.0924,1.622041 0.24304,0.331599 0.82642,0.405097 1.28176,0.252907 0.45534,-0.152194 0.69329,-0.517257 1.42078,-1.391089 0.72748,-0.873831 2.09232,-2.721671 2.93473,-3.840638 0.8424,-1.118966 1.41301,-1.915272 2.11953,-2.872908"
       id="path5934"
       sodipodi:nodetypes="czzzzzzzzzzzzzzzzzzzzzc" />
    <path
       style="fill:none;stroke:#ff0000;stroke-width:0.793751;stroke-linecap:butt;stroke-linejoin:miter;stroke-miterlimit:4;stroke-dasharray:none;stroke-opacity:1"
       d="m 240.91086,41.648061 c 1.43631,-0.705629 2.39502,-1.219668 4.30894,-2.116887 1.91392,-0.897219 4.98883,-2.105039 7.17379,-3.266046 2.18496,-1.161008 4.23957,-2.063341 5.91604,-3.689427 1.67647,-1.626084 3.48392,-4.137842 3.93627,-5.86679 0.45235,-1.728949 -0.34774,-2.419952 -1.86332,-2.056401 -1.51558,0.363551 -4.28872,2.085457 -6.07908,3.961596 -1.79036,1.876138 -3.65747,4.886948 -4.4254,7.046195 -0.76794,2.159248 -0.69554,2.767431 -0.55433,4.035903 0.14119,1.268471 1.13608,2.141731 3.13968,2.193785 2.00361,0.05205 2.37948,0.313214 4.26722,-0.809307 1.88774,-1.122521 5.17935,-3.368364 6.81955,-5.783275 1.64019,-2.414911 2.59834,-3.896213 3.87006,-5.356922 1.27174,-1.460709 2.4728,-2.558841 3.71902,-3.359897 1.24621,-0.801055 2.59593,-1.551374 3.66072,-1.383736 1.0648,0.167643 2.68359,0.05488 1.95649,2.268088 -0.72711,2.213214 -3.49501,6.133494 -5.47351,8.437295 -1.9785,2.3038 -4.59723,4.707018 -6.26542,5.231721 -1.66817,0.524701 -2.07147,-1.548393 -2.00306,-2.63098 0.0684,-1.082589 0.0427,-1.708795 0.5357,-3.205569"
       id="path5936"
       sodipodi:nodetypes="czzzzzzzzzzzzzzzzzzc" />
    <path
       style="fill:none;stroke:#ff0000;stroke-width:0.793751;stroke-linecap:butt;stroke-linejoin:miter;stroke-miterlimit:4;stroke-dasharray:none;stroke-opacity:1"
       d="m 278.01425,26.346016 c -0.41925,0.372975 -0.91475,0.631992 -1.25774,1.118924 -1.91132,2.713474 -3.84977,5.424513 -5.47351,8.437295 -0.64307,1.193205 -1.33312,2.599281 -1.25773,4.052316 0.0465,0.897893 0.86742,1.787882 1.56053,1.78423 1.6798,-0.0088 3.35084,-0.811258 4.84101,-1.817957 1.95954,-1.32378 3.74533,-3.104487 5.35425,-5.069561 1.59282,-1.945418 2.94906,-4.219149 4.17559,-6.56981 0.17554,-0.336418 -0.42585,-1.148671 -0.11648,-1.209648 0.91527,-0.180373 1.80488,0.564311 2.72511,0.695555 1.1354,0.161937 3.04628,-1.218245 3.42384,0.181439 0.4729,1.753108 -1.2176,3.38627 -2.05528,4.892073 -0.96203,1.729338 -2.24117,3.122179 -3.30651,4.746217 -0.51806,0.789719 -1.36242,1.455907 -1.43933,2.488429 -0.0414,0.555486 0.78142,0.563313 1.21116,0.574591 0.92491,0.02429 1.83434,-0.313733 2.75151,-0.470598"
       id="path5938"
       sodipodi:nodetypes="cssssssssssssssc" />
  </g>
</svg>
